<svg id="Слой_1" data-name="Слой 1" xmlns="http://www.w3.org/2000/svg" xmlns:xlink="http://www.w3.org/1999/xlink" viewBox="0 0 286 346">
  <defs>
    <style>
      .cls-1 {
        fill: none;
      }

      .cls-2 {
        clip-path: url(#clip-path);
      }

      .cls-3 {
        fill: #f15a29;
      }
    </style>
    <clipPath id="clip-path">
      <rect class="cls-1" x="-107" y="-77" width="500" height="500"/>
    </clipPath>
  </defs>
  <title>ColorLogo</title>
  <g class="cls-2">
    <path class="cls-3" d="M32.39,273.93a24.7,24.7,0,0,0-8.75,1.5,18.91,18.91,0,0,0-6.83,4.33V256.08H2.6v67.6H16.81V299.45q0-6.56,3.19-9.88a11.31,11.31,0,0,1,8.57-3.33q4.83,0,7.38,2.87t2.55,8.7v25.88H52.71V295.62q0-10.75-5.6-16.22t-14.72-5.47"/>
    <path class="cls-3" d="M98.72,277.17a29.13,29.13,0,0,0-13.85-3.24A29.39,29.39,0,0,0,71,277.17a24,24,0,0,0-9.61,9,26.24,26.24,0,0,0,0,26.06,24,24,0,0,0,9.61,9,29.38,29.38,0,0,0,13.9,3.24,29.11,29.11,0,0,0,13.85-3.24,24.12,24.12,0,0,0,9.57-9,26.25,26.25,0,0,0,0-26.06,24.14,24.14,0,0,0-9.57-9m-4.87,31.89a11.83,11.83,0,0,1-9,3.69,12,12,0,0,1-9-3.69q-3.55-3.69-3.55-9.89t3.55-9.88a12,12,0,0,1,9-3.69,11.84,11.84,0,0,1,9,3.69q3.51,3.69,3.51,9.88t-3.51,9.89"/>
    <path class="cls-3" d="M158.08,277.08a25,25,0,0,0-12.44-3.14q-10.11,0-15.4,6.38v-5.65H116.67v66.69h14.21V318.49q5.37,5.93,14.76,5.92a25,25,0,0,0,12.44-3.14,22.59,22.59,0,0,0,8.79-8.84,29.16,29.16,0,0,0,0-26.51,22.6,22.6,0,0,0-8.79-8.84m-5.92,32a12.76,12.76,0,0,1-17.95,0q-3.51-3.69-3.51-9.89t3.51-9.88a12.76,12.76,0,0,1,17.95,0q3.51,3.69,3.51,9.88t-3.51,9.89"/>
    <path class="cls-3" d="M216.39,277.08A25,25,0,0,0,204,273.93q-10.11,0-15.4,6.38v-5.65H175v66.69h14.21V318.49q5.37,5.93,14.76,5.92a25,25,0,0,0,12.44-3.14,22.58,22.58,0,0,0,8.79-8.84,29.17,29.17,0,0,0,0-26.51,22.59,22.59,0,0,0-8.79-8.84m-5.92,32a12.76,12.76,0,0,1-17.95,0q-3.51-3.69-3.51-9.89t3.51-9.88a12.76,12.76,0,0,1,17.95,0Q214,293,214,299.17t-3.51,9.89"/>
    <path class="cls-3" d="M277.8,279.4q-5.61-5.47-14.72-5.47a24.46,24.46,0,0,0-9.2,1.69,18.86,18.86,0,0,0-7,4.78v-5.74H233.29v49H247.5V299.45q0-6.56,3.19-9.89a11.3,11.3,0,0,1,8.56-3.32q4.83,0,7.38,2.87t2.55,8.7v25.88H283.4V295.62q0-10.75-5.6-16.22"/>
    <path class="cls-3" d="M135.74,182.16c7.5-8.12,13.84-17.17,17.81-26.6a53.87,53.87,0,0,0,3.92-14,29.29,29.29,0,0,0-.8-12.19,15.53,15.53,0,0,0-5.35-7.87,17.26,17.26,0,0,0-9.34-3.42,22.08,22.08,0,0,0-10.74,1.86,13.1,13.1,0,0,0-3.58,2.39,5.24,5.24,0,0,0-1.33,1.9h0c-15.67,36.13-37.94,50.31-46.85,54.73a416.83,416.83,0,0,0,36.83,60.72s17.81-16.07,39.19-39.18Z"/>
    <path class="cls-3" d="M157.75,4.65c-46.48,0-90.8,37.68-99,84.15-3.39,19.25,1.17,41.47,9,62.85C77.87,146,113.41,119.9,113.41,30.22h29.65c0,25.51-2.7,46.81-7,64.59a47.58,47.58,0,0,1,7.86-1.34,38.67,38.67,0,0,1,12.29,1,39.07,39.07,0,0,1,12.09,5,43.64,43.64,0,0,1,16.82,20.86,57.33,57.33,0,0,1,3.29,25,74.93,74.93,0,0,1-5.62,22.49c-.34.82-.73,1.61-1.1,2.42,21.45-26.61,41-56.55,45.37-81.5,8.2-46.48-22.84-84.15-69.31-84.15"/>
  </g>
</svg>
