<?xml version="1.0" encoding="UTF-8" standalone="no"?>
<svg xmlns="http://www.w3.org/2000/svg" xml:space="preserve" width="374.4" height="448.95" viewBox="0 0 374.4 448.95">
    <path d="M39.72 359.05c-4.2 0-8.1.67-11.66 2a25.22 25.22 0 0 0-9.1 5.78v-31.59H0v90.14h18.95v-32.31c0-5.84 1.42-10.23 4.25-13.18 2.84-2.96 6.64-4.44 11.42-4.44 4.3 0 7.57 1.28 9.84 3.83 2.27 2.55 3.4 6.42 3.4 11.6v34.5h18.95v-37.42c0-9.55-2.49-16.76-7.46-21.62-4.99-4.86-11.53-7.29-19.63-7.29"/>
    <path d="M121.66 405.88c-3.12 3.28-7.1 4.92-11.97 4.92-4.86 0-8.86-1.64-12.02-4.92-3.16-3.28-4.74-7.67-4.74-13.18 0-5.5 1.58-9.9 4.74-13.18 3.16-3.28 7.16-4.92 12.02-4.92 4.86 0 8.85 1.64 11.97 4.92 3.11 3.28 4.68 7.67 4.68 13.18 0 5.5-1.57 9.9-4.68 13.18m6.5-42.52c-5.43-2.87-11.58-4.3-18.47-4.3-6.88 0-13.06 1.43-18.52 4.3a32.06 32.06 0 0 0-12.82 11.97c-3.08 5.1-4.61 10.9-4.61 17.37 0 6.48 1.53 12.27 4.61 17.37 3.08 5.1 7.35 9.1 12.82 11.97 5.46 2.87 11.64 4.31 18.52 4.31 6.89 0 13.04-1.44 18.47-4.31a32.15 32.15 0 0 0 12.75-11.97c3.08-5.1 4.62-10.89 4.62-17.37s-1.54-12.27-4.62-17.37a32.18 32.18 0 0 0-12.75-11.97"/>
    <path d="M199.4 405.88c-3.11 3.28-7.1 4.92-11.96 4.92-4.86 0-8.85-1.64-11.96-4.92-3.12-3.28-4.68-7.67-4.68-13.18 0-5.5 1.56-9.9 4.68-13.18 3.11-3.28 7.1-4.92 11.96-4.92 4.86 0 8.85 1.64 11.97 4.92 3.11 3.28 4.67 7.67 4.67 13.18 0 5.5-1.56 9.9-4.67 13.18m7.9-42.64a33.31 33.31 0 0 0-16.6-4.19c-8.98 0-15.82 2.84-20.52 8.5v-7.53h-18.1v88.93h18.95v-30.5c4.78 5.27 11.34 7.9 19.68 7.9 6.08 0 11.6-1.4 16.58-4.2a30.11 30.11 0 0 0 11.73-11.77c2.83-5.06 4.25-10.96 4.25-17.68 0-6.72-1.42-12.61-4.25-17.68a30.13 30.13 0 0 0-11.73-11.78"/>
    <path d="M277.15 405.88c-3.12 3.28-7.1 4.92-11.96 4.92-4.86 0-8.85-1.64-11.97-4.92-3.12-3.28-4.68-7.67-4.68-13.18 0-5.5 1.56-9.9 4.68-13.18 3.12-3.28 7.1-4.92 11.97-4.92 4.86 0 8.84 1.64 11.96 4.92 3.12 3.28 4.68 7.67 4.68 13.18 0 5.5-1.56 9.9-4.68 13.18m7.9-42.64a33.31 33.31 0 0 0-16.58-4.19c-9 0-15.84 2.84-20.53 8.5v-7.53h-18.1v88.93h18.95v-30.5c4.78 5.27 11.34 7.9 19.68 7.9 6.07 0 11.6-1.4 16.58-4.2a30.1 30.1 0 0 0 11.72-11.77c2.84-5.06 4.25-10.96 4.25-17.68 0-6.72-1.41-12.61-4.25-17.68a30.13 30.13 0 0 0-11.72-11.78"/>
    <path d="M366.93 366.34c-4.99-4.86-11.53-7.29-19.62-7.29-4.46 0-8.55.75-12.27 2.25a25.15 25.15 0 0 0-9.36 6.38v-7.66h-18.1v65.36h18.96v-32.31c0-5.84 1.41-10.23 4.25-13.18 2.83-2.96 6.63-4.44 11.41-4.44 4.3 0 7.58 1.28 9.85 3.83 2.26 2.55 3.4 6.42 3.4 11.6v34.5h18.95v-37.42c0-9.55-2.5-16.76-7.47-21.62"/>
    <path d="M177.52 236.68c10-10.83 18.45-22.88 23.74-35.46a71.83 71.83 0 0 0 5.23-18.68c.72-6.02.4-11.72-1.06-16.25-1.47-4.56-3.79-7.91-7.13-10.5-3.3-2.6-7.5-4.12-12.46-4.56a29.44 29.44 0 0 0-14.32 2.48c-2.02.95-3.7 2.11-4.77 3.18a6.99 6.99 0 0 0-1.77 2.54h-.01c-20.9 48.16-50.6 67.07-62.47 72.97 22.25 45.42 49.11 80.97 49.11 80.97s23.75-21.43 52.26-52.24z"/>
    <path d="M206.87 0C144.9 0 85.8 50.24 74.87 112.2c-4.52 25.67 1.57 55.3 11.97 83.8 13.52-7.5 60.91-42.32 60.91-161.9h39.53c0 34-3.6 62.4-9.33 86.12a63.44 63.44 0 0 1 10.47-1.8c5.34-.44 10.86.01 16.39 1.35a52.1 52.1 0 0 1 16.11 6.7 58.18 58.18 0 0 1 22.44 27.83 76.44 76.44 0 0 1 4.39 33.35 99.9 99.9 0 0 1-7.5 30c-.45 1.09-.97 2.14-1.46 3.22 28.6-35.48 54.63-75.4 60.5-108.67C310.2 50.24 268.83 0 206.86 0"/>
</svg>
